<?xml version="1.0" standalone="no"?><!DOCTYPE svg PUBLIC "-//W3C//DTD SVG 1.1//EN" "http://www.w3.org/Graphics/SVG/1.1/DTD/svg11.dtd"><svg t="1704330958588" class="icon" viewBox="0 0 1024 1024" version="1.1" xmlns="http://www.w3.org/2000/svg" p-id="2075" xmlns:xlink="http://www.w3.org/1999/xlink" width="200" height="200"><path d="M512 512m-512 0a512 512 0 1 0 1024 0 512 512 0 1 0-1024 0Z" fill="#EE7623" opacity=".3" p-id="2076"></path><path d="M676.6592 473.86624c2.92864-195.13344-153.84576-283.52512-164.352-289.28V184.32L512 184.46336 511.73376 184.32v0.26624c-10.5472 5.75488-167.36256 94.14656-164.39296 289.28-31.9488 21.11488-65.37216 58.6752-60.06784 123.63776 5.3248 64.9216 66.88768 107.99104 90.46016 105.63584 23.57248-2.33472 16.71168-20.35712 16.71168-20.35712l8.0896-33.64864s34.73408 54.12864 45.8752 54.08768c10.0352-0.8192 57.63072-0.08192 63.32416 0h0.53248c5.69344-0.08192 53.30944-0.8192 63.30368 0 11.12064 0 45.89568-54.0672 45.89568-54.0672l8.06912 33.62816s-6.84032 18.0224 16.73216 20.35712c23.552 2.3552 85.13536-40.71424 90.46016-105.63584 5.3248-64.9216-28.13952-102.52288-60.06784-123.63776z m-164.6592-2.8672c-4.48512-0.08192-62.7712-2.2528-68.13696-72.00768 1.96608-66.29376 63.54944-72.15104 68.13696-72.4992 4.608 0.34816 66.19136 6.20544 68.13696 72.4992-5.36576 69.75488-63.6928 71.92576-68.13696 72.00768z m-34.44736 336.19968a14.1312 14.1312 0 0 1-13.9264 14.35648 14.15168 14.15168 0 0 1-13.9264-14.336v-70.94272c0-7.92576 6.22592-14.35648 13.9264-14.35648 7.68 0 13.9264 6.43072 13.9264 14.336v70.9632-0.02048z m51.2 38.44096a14.336 14.336 0 0 1-14.1312 14.52032 14.336 14.336 0 0 1-14.1312-14.5408V740.1472a14.336 14.336 0 0 1 14.1312-14.5408c7.7824 0 14.1312 6.51264 14.1312 14.5408v105.51296z m47.104-55.11168a14.1312 14.1312 0 0 1-13.9264 14.336 14.15168 14.15168 0 0 1-13.9264-14.336v-50.62656a14.1312 14.1312 0 0 1 13.9264-14.29504 14.1312 14.1312 0 0 1 13.9264 14.29504V790.528z" fill="#EE7623" p-id="2077"></path></svg>