<svg width="38" height="38" viewBox="0 0 38 38" fill="none" xmlns="http://www.w3.org/2000/svg">
<g id="&#229;&#133;&#179;&#233;&#151;&#173; (1)" opacity="0.5">
<path id="Vector" d="M32.3892 28.0548H32.3914V28.041L32.3892 28.0548Z" fill="white"/>
<path id="Vector_2" d="M34.4318 18.9999C34.4318 10.4902 27.5084 3.56836 19.0003 3.56836C10.49 3.56836 3.56824 10.4902 3.56824 18.9999C3.56824 27.5091 10.49 34.4315 19.0003 34.4315C27.5084 34.4315 34.4318 27.5091 34.4318 18.9999ZM19.0003 32.2173C11.7129 32.2173 5.78293 26.2862 5.78293 18.9999C5.78293 11.7126 11.7129 5.78313 19.0003 5.78313C26.2865 5.78313 32.2166 11.7126 32.2166 18.9999C32.2166 26.2862 26.2865 32.2173 19.0003 32.2173Z" fill="white"/>
<path id="Vector_3" d="M25.3227 23.8325L20.5511 19.0468L25.3183 14.3326C25.7511 13.9053 25.7543 13.2069 25.327 12.7742C24.8997 12.3408 24.2003 12.3375 23.7674 12.7659L18.9959 17.4856L14.2954 12.7703C13.8649 12.3397 13.1675 12.3376 12.7359 12.7681C12.3053 13.1993 12.3053 13.8965 12.7337 14.3272L17.4287 19.0359L12.6965 23.7166C12.2638 24.145 12.2594 24.8412 12.6878 25.2741C12.9042 25.4927 13.1862 25.6019 13.4703 25.6019C13.7501 25.6019 14.032 25.4948 14.2463 25.2839L18.985 20.5965L23.7609 25.3899C23.9762 25.6052 24.2592 25.7134 24.5423 25.7134C24.8243 25.7134 25.1051 25.6052 25.3204 25.3921C25.7511 24.9626 25.7521 24.2653 25.3227 23.8325Z" fill="white"/>
</g>
</svg>
