<?xml version="1.0" standalone="no"?><!DOCTYPE svg PUBLIC "-//W3C//DTD SVG 1.1//EN" "http://www.w3.org/Graphics/SVG/1.1/DTD/svg11.dtd"><svg t="1705286674450" class="icon" viewBox="0 0 1024 1024" version="1.1" xmlns="http://www.w3.org/2000/svg" p-id="5127" xmlns:xlink="http://www.w3.org/1999/xlink" width="200" height="200"><path d="M32 512a480 480 0 1 0 960 0 480 480 0 0 0-960 0z" fill="#FE2B2B" p-id="5128" data-spm-anchor-id="a313x.search_index.0.i3.50ef3a81HtKC4S" class="selected"></path><path d="M355.269486 292.571429m31.347377 31.347377l313.468598 313.468598q31.347377 31.347377 0 62.694754l0 0q-31.347377 31.347377-62.694754 0l-313.468598-313.468598q-31.347377-31.347377 0-62.694754l0 0q31.347377-31.347377 62.694754 0Z" fill="#FFFFFF" p-id="5129"></path><path d="M292.571429 668.730514m31.347377-31.347377l313.468598-313.468598q31.347377-31.347377 62.694754 0l0 0q31.347377 31.347377 0 62.694754l-313.468598 313.468598q-31.347377 31.347377-62.694754 0l0 0q-31.347377-31.347377 0-62.694754Z" fill="#FFFFFF" p-id="5130"></path></svg>