<?xml version="1.0" encoding="utf-8"?>
<!-- Generator: Adobe Illustrator 26.0.2, SVG Export Plug-In . SVG Version: 6.00 Build 0)  -->
<svg version="1.1" id="图层_1" xmlns="http://www.w3.org/2000/svg" xmlns:xlink="http://www.w3.org/1999/xlink" x="0px" y="0px"
	 viewBox="0 0 200 200" style="enable-background:new 0 0 200 200;" xml:space="preserve">
<style type="text/css">
	.st0{fill:#EE7623;}
</style>
<path class="st0" d="M124.2,167.4H95.8L92,184.8h89.2c4.2,0,7.6-3.4,7.6-7.6v-129c0-4.2-3.4-7.6-7.6-7.6h-79.7 M88,167.3H18.8
	c-8.4,0-15.2-6.8-15.2-15.2V23.2C3.7,14.7,10.5,8,18.8,8h75.9l4.7,25h81.7c8.4,0,15.2,6.8,15.2,15.2v129c0,8.4-6.8,15.2-15.2,15.2
	H82.6L88,167.3L88,167.3z M52.2,108.9v-8h-15V89.1h13.9v-7.9H37.2v-10h15v-7.9H28.5v45.5L52.2,108.9L52.2,108.9z M88.8,108.9V86.1
	c0-4.1-1-7.3-2.8-9.5c-1.8-2.2-4.7-3.3-8.4-3.3c-2.1,0-4.1,0.4-5.7,1.3c-1.7,0.9-3,2.2-3.9,3.9h-0.5l-1.2-4.5h-6.6v34.9h8.6V92.4
	c0-4.1,0.6-7,1.7-8.9c1.1-1.8,2.8-2.6,5.3-2.6c1.8,0,3,0.6,3.9,1.8c0.8,1.3,1.3,3.1,1.3,5.6v20.4L88.8,108.9L88.8,108.9z"/>
<path class="st0" d="M115,90.2h9.7v2.2H138V78.8h10v13.5h12.7l3.2-4.1l9.7,6.8l-2.7,3.5v23.6h-9.7v-3H148v23.3h-10v-23.3h-13.3v3
	H115L115,90.2L115,90.2z M124.7,98.8v13.8H138V98.8H124.7L124.7,98.8z M148,98.8v13.8h13.3V98.8H148z"/>
</svg>
